/* XPM */
static char *_b658cbfbcb5487af01742544688d37fkf29557mXSiX4blz[] = {
/* columns rows colors chars-per-pixel */
"64 64 3 1 ",
"  c blue",
". c black",
"X c red",
/* pixels */
"                                                                ",
"...............................                                 ",
".XXXXXXXXXXXXXXXXXXXXXXXXXXXXX.                                 ",
".XXXXXXXXXXXXXXXXXXXXXXXXXXXXX.                                 ",
".XXXXXXXXXXXXXXXXXXXXXXXXXXXXX.                                 ",
".XXXXXXXXXXXXXXXXXXXXXXXXXXXXX.                                 ",
".XXXXXXXXXXXXXXXXXXXXXXXXXXXXX.                                 ",
".XXXXXXXXXXXXXXXXXXXXXXXXXXXXX.                                 ",
".XXXXXXXXXXXXXXXXXXXXXXXXXXXXX.                                 ",
".XXXXXXXXXXXXXXXXXXXXXXXXXXXXX.                                 ",
".XXXXXXXXXXXXXXXXXXXXXXXXXXXXX.                                 ",
".XXXXXXXXXXXXXXXXXXXXXXXXXXXXX.                                 ",
".XXXXXXXXXXXXXXXXXXXXXXXXXXXXX.                                 ",
".XXXXXXXXXXXXXXXXXXXXXXXXXXXXX.                                 ",
".XXXXXXXXXXXXXXXXXXXXXXXXXXXXX.                                 ",
".XXXXXXXXXXXXXXXXXXXXXXXXXXXXX.                                 ",
".XXXXXXXXXXXXXXXXXXXXXXXXXXXXX.                                 ",
".XXXXXXXXXXXXXXXXXXXXXXXXXXXXX.                                 ",
".XXXXXXXXXXXXXXXXXXXXXXXXXXXXX.                                 ",
".XXXXXXXXXXXXXXXXXXXXXXXXXXXXX.                                 ",
".XXXXXXXXXXXXXXXXXXXXXXXXXXXXX.                                 ",
".XXXXXXXXXXXXXXXXXXXXXXXXXXXXX.                                 ",
".XXXXXXXXXXXXXXXXXXXXXXXXXXXXX.                                 ",
".XXXXXXXXXXXXXXXXXXXXXXXXXXXXX.                                 ",
".XXXXXXXXXXXXXXXXXXXXXXXXXXXXX.                                 ",
".XXXXXXXXXXXXXXXXXXXXXXXXXXXXX.                                 ",
".XXXXXXXXXXXXXXXXXXXXXXXXXXXXX.                                 ",
".XXXXXXXXXXXXXXXXXXXXXXXXXXXXX.                                 ",
".XXXXXXXXXXXXXXXXXXXXXXXXXXXXX.                                 ",
".XXXXXXXXXXXXXXXXXXXXXXXXXXXXX.                                 ",
".XXXXXXXXXXXXXXXXXXXXXXXXXXXXX.                                 ",
".XXXXXXXXXXXXXXXXXXXXXXXXXXXXX.                                 ",
".XXXXXXXXXXXXXXXXXXXXXXXXXXXXX.                                 ",
".XXXXXXXXXXXXXXXXXXXXXXXXXXXXX.                                 ",
".XXXXXXXXXXXXXXXXXXXXXXXXXXXXX.                                 ",
".XXXXXXXXXXXXXXXXXXXXXXXXXXXXX.                                 ",
".XXXXXXXXXXXXXXXXXXXXXXXXXXXXX.                                 ",
".XXXXXXXXXXXXXXXXXXXXXXXXXXXXX.                                 ",
".XXXXXXXXXXXXXXXXXXXXXXXXXXXXX.                                 ",
".XXXXXXXXXXXXXXXXXXXXXXXXXXXXX.                                 ",
".XXXXXXXXXXXXXXXXXXXXXXXXXXXXX.                                 ",
".XXXXXXXXXXXXXXXXXXXXXXXXXXXXX.                                 ",
".XXXXXXXXXXXXXXXXXXXXXXXXXXXXX.                                 ",
".XXXXXXXXXXXXXXXXXXXXXXXXXXXXX.                                 ",
".XXXXXXXXXXXXXXXXXXXXXXXXXXXXX.                                 ",
".XXXXXXXXXXXXXXXXXXXXXXXXXXXXX.                                 ",
".XXXXXXXXXXXXXXXXXXXXXXXXXXXXX.                                 ",
".XXXXXXXXXXXXXXXXXXXXXXXXXXXXX.                                 ",
".XXXXXXXXXXXXXXXXXXXXXXXXXXXXX.                                 ",
".XXXXXXXXXXXXXXXXXXXXXXXXXXXXX.                                 ",
".XXXXXXXXXXXXXXXXXXXXXXXXXXXXX.                                 ",
".XXXXXXXXXXXXXXXXXXXXXXXXXXXXX.                                 ",
".XXXXXXXXXXXXXXXXXXXXXXXXXXXXX.                                 ",
".XXXXXXXXXXXXXXXXXXXXXXXXXXXXX.                                 ",
".XXXXXXXXXXXXXXXXXXXXXXXXXXXXX.                                 ",
".XXXXXXXXXXXXXXXXXXXXXXXXXXXXX.                                 ",
".XXXXXXXXXXXXXXXXXXXXXXXXXXXXX.                                 ",
".XXXXXXXXXXXXXXXXXXXXXXXXXXXXX.                                 ",
".XXXXXXXXXXXXXXXXXXXXXXXXXXXXX.                                 ",
".XXXXXXXXXXXXXXXXXXXXXXXXXXXXX.                                 ",
".XXXXXXXXXXXXXXXXXXXXXXXXXXXXX.                                 ",
".XXXXXXXXXXXXXXXXXXXXXXXXXXXXX.                                 ",
".XXXXXXXXXXXXXXXXXXXXXXXXXXXXX.                                 ",
"...............................                                 "
};
